<?xml version="1.0" encoding="utf-8"?>
<svg version="1.1" id="Livello_1" xmlns="http://www.w3.org/2000/svg" xmlns:xlink="http://www.w3.org/1999/xlink" x="0px" y="0px"
	 viewBox="0 0 22.5 23.1" style="enable-background:new 0 0 22.5 23.1;" xml:space="preserve">
<style type="text/css">
	.st0{fill:#C5037E;}
	.st1{fill:#C5037E;stroke:#C5037E;stroke-width:0.5171;stroke-miterlimit:10;}
</style>
<g id="Freccia_26">
	<g>
		<g>
			<polygon class="st0" points="2.2,12.8 2.2,14.8 0.4,14.8 3.9,19.5 7.4,14.8 5.6,14.8 5.6,12.8 			"/>
		</g>
		<rect x="2.4" y="9.3" class="st0" width="3.3" height="0.8"/>
		<rect x="2.4" y="10.8" class="st0" width="3.3" height="1.4"/>
	</g>
	<g>
		<polygon class="st1" points="14,5.4 14,6.8 14.9,6.8 14.9,5 11.3,1.5 2.6,1.5 2.6,8.6 3.4,8.6 3.4,2.4 11,2.4 		"/>
		<polygon class="st1" points="14,14.5 14,17.8 6.4,17.8 6.4,18.7 14.9,18.7 14.9,14.5 		"/>
	</g>
</g>
<g>
	<path class="st0" d="M11.1,8.5c0.3,0.1,0.6,0.3,0.7,0.6C11.9,9.4,12,9.7,12,10s-0.1,0.7-0.3,0.9c-0.2,0.3-0.4,0.5-0.7,0.6
		c-0.3,0.1-0.7,0.2-1.1,0.2H9.1V13H7.8V8.3H10C10.4,8.3,10.7,8.4,11.1,8.5z M10.5,10.5c0.1-0.1,0.2-0.3,0.2-0.5s-0.1-0.4-0.2-0.5
		c-0.1-0.1-0.3-0.2-0.6-0.2H9.1v1.4h0.7C10.1,10.7,10.3,10.6,10.5,10.5z"/>
	<path class="st0" d="M12.7,8.3h2.2c0.5,0,1,0.1,1.4,0.3c0.4,0.2,0.7,0.5,0.9,0.8c0.2,0.4,0.3,0.8,0.3,1.2c0,0.5-0.1,0.9-0.3,1.2
		c-0.2,0.4-0.5,0.6-0.9,0.8c-0.4,0.2-0.9,0.3-1.4,0.3h-2.2V8.3z M14.8,11.9c0.4,0,0.7-0.1,1-0.3c0.2-0.2,0.4-0.5,0.4-0.9
		c0-0.4-0.1-0.7-0.4-0.9c-0.2-0.2-0.6-0.3-1-0.3H14v2.6H14.8z"/>
	<path class="st0" d="M19.5,9.3v1h2.1v1h-2.1V13h-1.3V8.3h3.7v1H19.5z"/>
</g>
</svg>
