<?xml version="1.0" encoding="utf-8"?>
<svg version="1.1" id="Livello_1" xmlns="http://www.w3.org/2000/svg" xmlns:xlink="http://www.w3.org/1999/xlink" x="0px" y="0px"
	 viewBox="0 0 100 34" style="enable-background:new 0 0 100 34;" xml:space="preserve">
<style type="text/css">
	.st0{fill:#FFFFFF;}
	.st1{fill:#C5037E;}
	.st2{fill:none;stroke:#C5037E;stroke-width:1.133;stroke-miterlimit:10;}
	.st3{fill:#0397BB;}
</style>
<rect x="0" y="0" class="st0" width="100" height="34"/>
<path class="st1" d="M87.54,27.67c-1.25-0.7-2.11-1.68-2.6-2.96c-0.33-0.99-0.37-2.21-0.11-3.67c0.49-1.57,1.52-2.65,3.1-3.25
	c1.63-0.61,3.17-0.49,4.61,0.39c1.02,0.61,1.84,1.7,2.45,3.26l-8.6,3.25c0.34,0.85,0.99,1.5,1.94,1.95c0.96,0.45,1.94,0.49,2.95,0.1
	c0.48-0.18,0.92-0.45,1.32-0.79c0.39-0.34,0.7-0.72,0.92-1.12c0.22-0.4,0.39-0.99,0.53-1.76l1.29-0.48
	c-0.11,1.22-0.31,2.12-0.61,2.7c-0.29,0.58-0.68,1.07-1.16,1.49c-0.09,0.08-0.55,0.38-1.38,0.9H87.54z"/>
<g>
	<circle class="st2" cx="9.61" cy="8.64" r="4.86"/>
	<rect x="9.05" y="5.07" transform="matrix(0.635 0.7725 -0.7725 0.635 10.1791 -4.2742)" class="st1" width="1.13" height="7.12"/>
</g>
<path class="st3" d="M0,13.84h23.44c-0.8-0.03-1.73-0.5-2.8-1.42c-1.07-0.92-1.61-2.12-1.61-3.6c0-0.99,0.25-1.91,0.75-2.76
	c0.5-0.85,1.18-1.51,2.05-1.99c0.87-0.48,1.85-0.71,2.92-0.71c0.68,0,1.33,0.1,1.96,0.31c0.63,0.21,1.12,0.48,1.47,0.82
	c0.35,0.34,0.72,0.97,1.11,1.9l-1.12,0.01c-0.76-1.2-1.92-1.8-3.48-1.8c-1.25,0-2.28,0.4-3.11,1.2c-0.82,0.8-1.24,1.78-1.24,2.92
	c0,0.75,0.19,1.45,0.57,2.11c0.38,0.66,0.9,1.14,1.56,1.46c0.66,0.31,1.4,0.47,2.22,0.47c1.5,0,2.66-0.55,3.47-1.65h1.1
	c-0.5,0.95-1.13,1.65-1.88,2.12c-0.38,0.21-0.97,0.41-1.75,0.61h3.46v1.17H0V13.84z"/>
<path class="st3" d="M40.64,15h-5.53l-0.93,3.11c-0.06,0.13-0.14,0.22-0.24,0.29c-0.1,0.07-0.21,0.11-0.32,0.13
	s-0.22,0.02-0.32,0.01c-0.1-0.02-0.17-0.05-0.22-0.09l-3.67-3.39l-0.93-0.01v-1.2h1.25l3.51,3.07l2.41-6.66L29.19,3.6h1.39
	l5.69,5.34l2.3-5.32h1.4L35.6,13.83h5.03V15z"/>
<path class="st3" d="M38.49,13.84h5.63c-0.8-0.03-1.73-0.5-2.8-1.42c-1.07-0.92-1.61-2.12-1.61-3.6c0-0.99,0.25-1.91,0.75-2.76
	c0.5-0.85,1.18-1.51,2.05-1.99c0.87-0.48,1.85-0.71,2.92-0.71c0.68,0,1.33,0.1,1.96,0.31c0.63,0.21,1.12,0.48,1.47,0.82
	c0.35,0.34,0.72,0.97,1.11,1.9l-1.12,0.01c-0.76-1.2-1.92-1.8-3.48-1.8c-1.25,0-2.28,0.4-3.11,1.2c-0.82,0.8-1.24,1.78-1.24,2.92
	c0,0.75,0.19,1.45,0.57,2.11c0.38,0.66,0.9,1.14,1.56,1.46c0.66,0.31,1.4,0.47,2.22,0.47c1.5,0,2.66-0.55,3.47-1.65h1.1
	c-0.5,0.95-1.13,1.65-1.88,2.12c-0.38,0.21-0.97,0.41-1.75,0.61h5.08v1.17H38.49V13.84z"/>
<path class="st3" d="M50.3,13.85h1.5V0h1.33v13.85h1.44v1.17H50.3V13.85z"/>
<path class="st3" d="M53.51,13.85h4.66c-0.75-0.29-1.4-0.73-1.96-1.34c-0.99-1.07-1.48-2.29-1.48-3.67c0-1.35,0.47-2.54,1.41-3.58
	c1.03-1.15,2.34-1.72,3.92-1.72c1.57,0,2.88,0.57,3.91,1.71c0.93,1.04,1.4,2.24,1.4,3.59c0,1.37-0.5,2.6-1.49,3.67
	c-0.56,0.6-1.21,1.05-1.95,1.34h4.67v1.17H53.51V13.85z M60.06,4.83c-1.46,0.1-2.51,0.58-3.15,1.43c-0.58,0.7-0.86,1.57-0.84,2.61
	c0,0.68,0.18,1.34,0.54,1.98c0.36,0.64,0.84,1.13,1.45,1.48c0.61,0.35,1.28,0.52,2,0.52c0.73,0,1.4-0.17,2-0.52
	c0.61-0.35,1.09-0.84,1.45-1.48c0.36-0.64,0.54-1.3,0.54-1.98c0-1.08-0.39-2.02-1.18-2.83C62.08,5.24,61.14,4.83,60.06,4.83z"/>
<path class="st3" d="M54.98,27.72h2.52c-0.16-0.05-0.37-0.13-0.63-0.25c-0.66-0.19-1.15-0.82-1.47-1.89h1.34
	c0.14,0.75,0.67,1.11,1.57,1.08c0.75,0.04,1.31-0.11,1.68-0.45c0.37-0.34,0.55-0.74,0.55-1.19c0-0.38-0.12-0.71-0.37-1.01
	c-0.24-0.29-0.8-0.59-1.66-0.89c-0.92-0.48-1.55-0.95-1.88-1.41c-0.33-0.46-0.5-0.99-0.5-1.59c0-0.78,0.26-1.42,0.79-1.94
	c0.53-0.51,1.33-0.77,2.39-0.76c1.3-0.05,2.16,0.66,2.58,2.12l-1.05,0.04c-0.02-0.66-0.55-0.97-1.59-0.92
	c-0.68-0.01-1.18,0.13-1.48,0.41c-0.3,0.28-0.46,0.61-0.46,0.99c0,0.33,0.13,0.65,0.38,0.95c0.25,0.31,0.78,0.67,1.58,1.08
	c0.98,0.51,1.64,0.93,1.99,1.27c0.34,0.48,0.52,1.01,0.52,1.61c0,0.84-0.29,1.55-0.88,2.13c-0.32,0.28-0.68,0.49-1.08,0.63h3v1.17
	h-7.85V27.72z"/>
<path class="st3" d="M62.41,27.7h2.85v-9.1l-2.61,0.04v-1.13l2.61-0.04v-3.62h1.33v3.62l2.56,0.03v1.13l-2.56-0.03v9.1h2.83v1.17
	h-7.01V27.7z"/>
<path class="st3" d="M80.93,28.85H75.4l-0.93,3.11c-0.06,0.13-0.14,0.22-0.24,0.29c-0.1,0.07-0.21,0.11-0.32,0.13
	c-0.11,0.02-0.22,0.02-0.32,0.01c-0.1-0.02-0.17-0.05-0.22-0.09l-3.67-3.39l-0.93-0.01v-1.2h1.25l3.51,3.07l2.41-6.66l-6.45-6.65
	h1.39l5.69,5.34l2.3-5.32h1.4L75.9,27.69h5.03V28.85z"/>
<path class="st3" d="M80.27,27.7h1.5V13.85h1.33V27.7h1.44v1.17h-4.27V27.7z"/>
<polygon class="st3" points="92.2,27.7 100,27.7 100,28.87 83.48,28.87 83.48,27.7 87.54,27.7 "/>
<path class="st0" d="M93.24,20.88c-0.51-0.86-1-1.42-1.47-1.7c-0.46-0.27-1-0.43-1.61-0.47c-0.61-0.04-1.19,0.04-1.76,0.25
	c-0.94,0.36-1.63,0.97-2.08,1.82c-0.33,0.63-0.4,1.56-0.21,2.79L93.24,20.88z"/>
</svg>
