<?xml version="1.0" encoding="utf-8"?>
<!-- Generator: Adobe Illustrator 23.0.3, SVG Export Plug-In . SVG Version: 6.00 Build 0)  -->
<svg version="1.1" id="Livello_1" xmlns="http://www.w3.org/2000/svg" xmlns:xlink="http://www.w3.org/1999/xlink" x="0px" y="0px"
	 viewBox="0 0 100 34" style="enable-background:new 0 0 100 34;" xml:space="preserve">
<style type="text/css">
	.st0{fill:#FFFFFF;}
	.st1{fill:#C5037E;}
	.st2{fill:none;stroke:#C5037E;stroke-width:1.1327;stroke-miterlimit:10;}
	.st3{fill:#0397BB;}
</style>
<rect x="0" y="0" class="st0" width="100" height="34"/>
<path class="st1" d="M87.5,27.7c-1.3-0.7-2.1-1.7-2.6-3c-0.3-1-0.4-2.2-0.1-3.7c0.5-1.6,1.5-2.7,3.1-3.3c1.6-0.6,3.2-0.5,4.6,0.4
	c1,0.6,1.8,1.7,2.4,3.3l-8.6,3.3c0.3,0.8,1,1.5,1.9,1.9s1.9,0.5,3,0.1c0.5-0.2,0.9-0.4,1.3-0.8c0.4-0.3,0.7-0.7,0.9-1.1
	c0.2-0.4,0.4-1,0.5-1.8l1.3-0.5c-0.1,1.2-0.3,2.1-0.6,2.7c-0.3,0.6-0.7,1.1-1.2,1.5c-0.1,0.1-0.5,0.4-1.4,0.9L87.5,27.7L87.5,27.7z"
	/>
<g>
	<circle class="st2" cx="9.6" cy="8.6" r="4.9"/>
	<rect x="6.1" y="8.1" transform="matrix(0.7725 -0.635 0.635 0.7725 -3.284 8.0734)" class="st1" width="7.1" height="1.1"/>
</g>
<path class="st3" d="M0,13.8h23.4c-0.8,0-1.7-0.5-2.8-1.4c-1.1-0.9-1.6-2.1-1.6-3.6c0-1,0.2-1.9,0.7-2.8s1.2-1.5,2-2
	s1.8-0.7,2.9-0.7c0.7,0,1.3,0.1,2,0.3c0.6,0.2,1.1,0.5,1.5,0.8s0.7,1,1.1,1.9h-1.1c-0.7-1.2-1.9-1.8-3.5-1.8c-1.3,0-2.3,0.4-3.1,1.2
	c-0.8,0.8-1.2,1.8-1.2,2.9c0,0.7,0.2,1.5,0.6,2.1c0.4,0.6,0.9,1.2,1.6,1.5c0.6,0.3,1.4,0.5,2.2,0.5c1.5,0,2.7-0.5,3.5-1.7h1.1
	c-0.5,1-1.1,1.7-1.9,2.1c-0.4,0.2-1,0.4-1.7,0.6h3.5v1.2H0.1L0,13.8L0,13.8z"/>
<path class="st3" d="M40.7,15h-5.5l-0.9,3.1c-0.1,0.1-0.1,0.2-0.2,0.3c-0.1,0.1-0.2,0.1-0.3,0.1s-0.2,0-0.3,0s-0.2,0-0.2-0.1
	L29.5,15h-0.9v-1.2h1.3l3.5,3.1l2.3-6.6l-6.5-6.7h1.4l5.7,5.3l2.3-5.3H40l-4.4,10.2h5L40.7,15L40.7,15z"/>
<path class="st3" d="M38.5,13.8h5.6c-0.8,0-1.7-0.5-2.8-1.4c-1.1-0.9-1.6-2.1-1.6-3.6c0-1,0.2-1.9,0.7-2.8s1.2-1.5,2-2
	s1.8-0.7,2.9-0.7c0.7,0,1.3,0.1,2,0.3c0.6,0.2,1.1,0.5,1.5,0.8s0.7,1,1.1,1.9h-1.1c-0.7-1.2-1.9-1.8-3.5-1.8c-1.3,0-2.3,0.4-3.1,1.2
	c-0.8,0.8-1.2,1.8-1.2,2.9c0,0.7,0.2,1.5,0.6,2.1c0.4,0.6,0.9,1.2,1.6,1.5c0.6,0.3,1.4,0.5,2.2,0.5c1.5,0,2.7-0.5,3.5-1.7H50
	c-0.5,1-1.1,1.7-1.9,2.1c-0.4,0.2-1,0.4-1.7,0.6h5.1v1.2h-13V13.8z"/>
<path class="st3" d="M50.3,13.8h1.5V0h1.3v13.8h1.4V15h-4.2V13.8z"/>
<path class="st3" d="M53.5,13.8h4.7c-0.7-0.3-1.4-0.7-2-1.3c-1-1.1-1.5-2.3-1.5-3.7c0-1.4,0.5-2.5,1.4-3.6c1-1.2,2.3-1.7,3.9-1.7
	s2.9,0.6,3.9,1.7c0.9,1.1,1.4,2.2,1.4,3.6s-0.5,2.6-1.5,3.7c-0.5,0.6-1.2,1.1-1.9,1.3h4.7V15H53.5V13.8z M60.1,4.8
	c-1.5,0.1-2.5,0.6-3.2,1.4c-0.6,0.7-0.8,1.6-0.8,2.6c0,0.7,0.2,1.3,0.5,2c0.4,0.6,0.8,1.1,1.5,1.5c0.6,0.3,1.3,0.5,2,0.5
	s1.4-0.2,2-0.5c0.6-0.3,1.1-0.8,1.5-1.5c0.4-0.6,0.5-1.3,0.5-2c0-1.1-0.4-2-1.2-2.8S61.1,4.8,60.1,4.8z"/>
<path class="st3" d="M55,27.7h2.5c-0.2,0-0.4-0.1-0.6-0.2c-0.6-0.2-1.2-0.8-1.5-1.9h1.3c0.1,0.7,0.7,1.1,1.6,1.1
	c0.7,0,1.3-0.1,1.7-0.4s0.5-0.7,0.5-1.2c0-0.4-0.1-0.7-0.4-1c-0.2-0.3-0.8-0.6-1.7-0.9c-0.9-0.5-1.6-1-1.9-1.4
	c-0.3-0.4-0.4-1-0.4-1.6c0-0.8,0.3-1.4,0.8-1.9c0.5-0.5,1.3-0.8,2.4-0.7c1.3,0,2.2,0.6,2.6,2.1l-1.1,0c0-0.6-0.5-1-1.6-0.9
	c-0.7,0-1.2,0.1-1.5,0.4c-0.3,0.3-0.5,0.6-0.5,1c0,0.3,0.1,0.6,0.4,1c0.2,0.3,0.8,0.7,1.6,1.1c1,0.5,1.6,0.9,2,1.3
	c0.3,0.5,0.5,1,0.5,1.6c0,0.8-0.3,1.6-0.9,2.1c-0.3,0.3-0.7,0.5-1.1,0.6h3v1.2H55V27.7L55,27.7z"/>
<path class="st3" d="M62.4,27.7h2.9v-9.1l-2.6,0v-1.1l2.6,0v-3.6h1.3v3.6l2.5,0v1.1l-2.5,0v9.1h2.8v1.2h-7
	C62.4,28.9,62.4,27.7,62.4,27.7z"/>
<path class="st3" d="M80.9,28.9h-5.5L74.5,32c-0.1,0.1-0.1,0.2-0.2,0.3c-0.1,0.1-0.2,0.1-0.3,0.1c-0.1,0-0.2,0-0.3,0
	c-0.1,0-0.2,0-0.2-0.1l-3.7-3.4h-0.9v-1.2h1.3l3.5,3.1l2.4-6.7l-6.5-6.7h1.4l5.7,5.3l2.3-5.3h1.4l-4.4,10.2h5V28.9z"/>
<path class="st3" d="M80.3,27.7h1.5V13.8h1.3v13.8h1.4v1.2h-4.2C80.3,28.9,80.3,27.7,80.3,27.7z"/>
<polygon class="st3" points="92.2,27.7 100,27.7 100,28.9 83.5,28.9 83.5,27.7 87.5,27.7 "/>
<path class="st0" d="M93.2,20.9c-0.5-0.8-1-1.4-1.5-1.7c-0.5-0.3-1-0.4-1.6-0.5s-1.2,0-1.8,0.2c-1,0.4-1.6,1-2.1,1.8
	c-0.3,0.6-0.4,1.6-0.2,2.8L93.2,20.9z"/>
</svg>
