<?xml version="1.0" encoding="utf-8"?>
<svg version="1.1" id="Livello_1" xmlns="http://www.w3.org/2000/svg" xmlns:xlink="http://www.w3.org/1999/xlink" x="0px" y="0px"
	 viewBox="0 0 275 63" style="enable-background:new 0 0 275 63;" xml:space="preserve">
<style type="text/css">
	.st0{fill:#FFFFFF;}
	.st1{fill:#C5037E;}
	.st2{fill:#0397BB;}
</style>
<rect y="0.5" class="st0" width="275" height="63"/>
<path class="st1" d="M267.7,27.5c-1.3-3.7-4-6.6-7.4-8.5c0,0-3.7-2.1-8.2-1.6c-8.7,1.1-11.9,6.9-12.7,8.5c-0.8,1.6-1.3,4.2-1.9,7.7
	l3.7-1.3c0.5-2.1,0.8-4,1.6-5c0.8-1.1,1.6-2.4,2.7-3.2c1.1-1.1,2.4-1.9,3.7-2.4c2.9-1.1,5.8-1.1,8.5,0.3c2.7,1.3,4.8,3.2,5.6,5.6
	L238.3,37c1.9,4.5,4.2,7.7,7.2,9.5c4.2,2.7,8.7,2.9,13.3,1.1c4.5-1.9,7.7-4.8,9-9.5C268.8,33.9,268.8,30.4,267.7,27.5z M263.7,38.9
	c-1.3,2.4-3.2,4.2-6.1,5.3c-1.6,0.5-3.4,0.8-5,0.8c-1.9,0-3.4-0.5-4.8-1.3c-1.3-0.8-2.7-2.4-4.2-5l20.7-7.7
	C264.8,34.4,264.5,37,263.7,38.9z"/>
<path class="st2" d="M0,47.9h19.3c-2.4,0-5-1.3-8.2-4.2C7.9,41,6.3,37.6,6.3,33.3c0-2.9,0.8-5.6,2.1-8s3.4-4.5,5.8-5.8
	c2.7-1.3,5.3-2.1,8.5-2.1c1.9,0,4,0.3,5.6,0.8c1.9,0.5,3.2,1.3,4.2,2.4c1.1,1.1,2.1,2.9,3.2,5.6h-3.2c-2.1-3.4-5.6-5.3-10.1-5.3
	c-3.7,0-6.6,1.1-9,3.4s-3.7,5-3.7,8.5c0,2.1,0.5,4.2,1.6,6.1c1.1,1.9,2.7,3.4,4.5,4.2c1.9,0.8,4,1.3,6.4,1.3c4.2,0,7.7-1.6,10.1-4.8
	h4.2c-1.3,2.7-3.2,4.8-5.6,6.1c-1.1,0.5-2.9,1.1-5,1.9H36v3.4H0V47.9z"/>
<path class="st2" d="M69.4,51.1H53.5l-2.7,9c-0.3,0.3-0.3,0.5-0.8,0.8c-0.3,0.3-0.5,0.3-1.1,0.3c-0.3,0-0.5,0-0.8,0
	c-0.3,0-0.5,0-0.5-0.3L37,51.1h-2.7v-3.4h3.7l10.1,9L55,37.3L36.2,18h4l16.4,15.4L63.3,18h4L54.5,47.6h14.6v3.4H69.4z"/>
<path class="st2" d="M63,47.6h16.4c-2.4,0-5-1.3-8.2-4.2c-3.2-2.7-4.8-6.1-4.8-10.3c0-2.9,0.8-5.6,2.1-8c1.3-2.4,3.4-4.5,5.8-5.8
	c2.7-1.3,5.3-2.1,8.5-2.1c1.9,0,4,0.3,5.6,0.8c1.9,0.5,3.2,1.3,4.2,2.4s2.1,2.9,3.2,5.6h-3.2c-2.1-3.4-5.6-5.3-10.1-5.3
	c-3.7,0-6.6,1.1-9,3.4c-2.4,2.4-3.7,5-3.7,8.5c0,2.1,0.5,4.2,1.6,6.1c1.1,1.9,2.7,3.4,4.5,4.2c1.9,0.8,4,1.3,6.4,1.3
	c4.2,0,7.7-1.6,10.1-4.8h3.2c-1.3,2.7-3.2,4.8-5.6,6.1c-1.1,0.5-2.9,1.3-5,2.1h14.6v3.4H63V47.6z"/>
<path class="st2" d="M97.2,47.6h4.2v-40h4v40h4.2v3.4H97.2C97.2,51.1,97.2,47.6,97.2,47.6z"/>
<path class="st2" d="M106.5,47.6H120c-2.1-0.8-4-2.1-5.6-4c-2.9-3.2-4.2-6.6-4.2-10.6s1.3-7.4,4-10.3c2.9-3.4,6.9-5,11.4-5
	c4.5,0,8.2,1.6,11.4,5c2.7,2.9,4,6.4,4,10.3s-1.3,7.4-4.2,10.6c-1.6,1.9-3.4,2.9-5.6,4h13.5v3.4h-38.2V47.6z M125.5,21.7
	c-4.2,0.3-7.2,1.6-9,4.2c-1.6,2.1-2.4,4.5-2.4,7.7c0,1.9,0.5,4,1.6,5.8c1.1,1.9,2.4,3.2,4.2,4.2c1.9,1.1,3.7,1.6,5.8,1.6
	s4-0.5,5.8-1.6c1.9-1.1,3.2-2.4,4.2-4.2s1.6-3.7,1.6-5.8c0-3.2-1.1-5.8-3.4-8.2C131.4,22.7,128.7,21.7,125.5,21.7z"/>
<path class="st2" d="M151.6,47.7h7.4c0,0-1-0.2-2-0.9c-1.5-1.1-3.3-2.6-4.1-5.8h4c0.5,2.1,1.9,3.2,4.5,3.2c2.1,0,3.7-0.3,4.8-1.3
	s1.6-2.1,1.6-3.4c0-1.1-0.3-2.1-1.1-2.9c-0.8-0.8-2.4-1.6-4.8-2.7c-2.7-1.3-4.5-2.7-5.6-4s-1.3-2.9-1.3-4.5c0-2.1,0.8-4.2,2.4-5.6
	c1.6-1.6,4-2.1,6.9-2.1c3.7-0.3,6.4,1.9,7.4,6.1h-3.2c0-1.9-1.6-2.9-4.5-2.7c-1.9,0-3.4,0.3-4.2,1.3c-0.8,1.1-1.3,1.9-1.3,2.9
	s0.3,1.9,1.1,2.7c0.8,0.8,2.1,1.9,4.5,3.2c2.9,1.6,4.8,2.7,5.8,3.7c1.1,1.3,1.6,2.9,1.6,4.8c0,2.4-0.8,4.5-2.7,6.1
	c-0.8,0.8-1.9,1.3-3.2,1.9h8.7v3.4h-22.8V47.7z"/>
<path class="st2" d="M173.1,47.7h8.2V21.4h-7.7v-3.2h7.7V7.6h3.7v10.6h7.4v3.2H185v26.2h8.2v3.4h-20.4v-3.4H173.1z"/>
<path class="st2" d="M226.7,51.1h-15.9l-2.7,9c-0.3,0.3-0.3,0.5-0.8,0.8c-0.3,0.3-0.5,0.3-1.1,0.3c-0.3,0-0.5,0-0.8,0
	c-0.3,0-0.5,0-0.5-0.3l-10.6-9.9h-2.7v-3.4h3.4l10.1,9l6.9-19.3L193.3,18h4.5l16.4,15.4l6.6-15.4h4l-12.7,29.9h14.6
	C226.7,47.9,226.7,51.1,226.7,51.1z"/>
<path class="st2" d="M224.8,47.9h4.2V7.6h3.7v40.3h4.2v3.2h-12.5v-3.2H224.8z"/>
<polygon class="st2" points="259.5,47.9 275,47.9 275,51.1 234,51.1 234,47.9 246,47.9 "/>
<rect x="144.5" y="47.6" class="st0" width="1.9" height="3.4"/>
<rect x="149.8" y="47.6" class="st0" width="1.8" height="3.4"/>
<rect x="146.4" y="47.6" class="st2" width="3.4" height="3.4"/>
</svg>
