<?xml version="1.0" encoding="utf-8"?>
<svg version="1.1" id="Livello_1" xmlns="http://www.w3.org/2000/svg" xmlns:xlink="http://www.w3.org/1999/xlink" x="0px" y="0px"
	 viewBox="0 0 100 34" style="enable-background:new 0 0 100 34;" xml:space="preserve">
<style type="text/css">
	.st0{fill:#FFFFFF;}
	.st1{fill:#C5037E;}
	.st2{fill:none;stroke:#C5037E;stroke-width:1.1327;stroke-miterlimit:10;}
	.st3{fill:#0397BB;}
</style>
<rect class="st0" width="100" height="34"/>
<path class="st1" d="M87.5,27.7c-1.3-0.7-2.1-1.7-2.6-3c-0.3-1-0.4-2.2-0.1-3.7c0.5-1.6,1.5-2.7,3.1-3.3c1.6-0.6,3.2-0.5,4.6,0.4
	c1,0.6,1.8,1.7,2.4,3.3l-8.6,3.3c0.3,0.8,1,1.5,1.9,1.9s1.9,0.5,3,0.1c0.5-0.2,0.9-0.4,1.3-0.8c0.4-0.3,0.7-0.7,0.9-1.1
	c0.2-0.4,0.4-1,0.5-1.8l1.3-0.5c-0.1,1.2-0.3,2.1-0.6,2.7c-0.3,0.6-0.7,1.1-1.2,1.5c-0.1,0.1-0.5,0.4-1.4,0.9L87.5,27.7L87.5,27.7z"
	/>
<g>
	<circle class="st2" cx="9.6" cy="8.6" r="4.9"/>
	<rect x="6.1" y="8.1" transform="matrix(0.7725 -0.635 0.635 0.7725 -3.2803 8.0991)" class="st1" width="7.1" height="1.1"/>
</g>
<path class="st3" d="M83.1,27.6V13.9h-1.3v13.7l-5.5,0l4.1-10.2H79l-2.3,5.3L71,17.4h-1.4l6.5,6.7l-2.4,6.7l-3.6-3.2l-3.5,0v-9h2.5
	v-1.1h-2.5l0-3.7h-4.7c0.7-0.2,1.4-0.7,1.9-1.3c1-1.1,1.5-2.3,1.5-3.7s-0.5-2.5-1.4-3.6c-1-1.1-2.3-1.7-3.9-1.7
	c-1.6,0-2.9,0.5-3.9,1.7c-0.9,1.1-1.4,2.2-1.4,3.6s0.5,2.6,1.5,3.7c0.6,0.6,1.3,1,2,1.3h-5.1V0h-1.3v13.8l-5.4,0
	c0.7-0.2,1.3-0.5,1.7-0.7c0.8-0.4,1.4-1.1,1.9-2.1h-1.1c-0.8,1.2-2,1.7-3.5,1.7c-0.8,0-1.6-0.2-2.2-0.5c-0.7-0.3-1.2-0.9-1.6-1.5
	C41.2,10.1,41,9.3,41,8.6c0-1.1,0.4-2.1,1.2-2.9s1.8-1.2,3.1-1.2c1.6,0,2.8,0.6,3.5,1.8h1.1c-0.4-0.9-0.7-1.6-1.1-1.9
	c-0.4-0.3-0.9-0.6-1.5-0.8c-0.7-0.2-1.3-0.3-2-0.3c-1.1,0-2.1,0.2-2.9,0.7c-0.8,0.5-1.5,1.1-2,2s-0.7,1.8-0.7,2.8
	c0,1.5,0.5,2.7,1.6,3.6c1.1,0.9,2,1.4,2.8,1.4l-8.2,0L40,3.5h-1.4l-2.3,5.3l-5.7-5.3h-1.4l6.5,6.7l-2.3,6.6l-3.4-3h-4.3
	c0.7-0.2,1.3-0.5,1.7-0.7c0.8-0.4,1.4-1.1,1.9-2.1h-1.1c-0.8,1.2-2,1.7-3.5,1.7c-0.8,0-1.6-0.2-2.2-0.5c-0.7-0.3-1.2-0.9-1.6-1.5
	c-0.4-0.6-0.6-1.4-0.6-2.1c0-1.1,0.4-2.1,1.2-2.9s1.8-1.2,3.1-1.2c1.6,0,2.8,0.6,3.5,1.8h1.1c-0.4-0.9-0.7-1.6-1.1-1.9
	c-0.4-0.3-0.9-0.6-1.5-0.8c-0.7-0.2-1.3-0.3-2-0.3c-1.1,0-2.1,0.2-2.9,0.7s-1.5,1.1-2,2S19,7.8,19,8.8c0,1.5,0.5,2.7,1.6,3.6
	c1.1,0.9,2,1.4,2.8,1.4H0l0,1.3l29.7,0l3.6,3.2c0.1,0.1,0.4,0.2,0.6,0.2c0.2,0,0.3-0.1,0.4-0.3c0.1-0.1,1.1-3.1,1.1-3.1l29.9,0v2.4
	h-2.6v1.1h2.6v9l-5.5,0c0.4-0.1,0.7-0.2,1-0.5c0.6-0.5,0.9-1.3,0.9-2.1c0-0.6-0.2-1.1-0.5-1.6c-0.4-0.4-1-0.8-2-1.3
	c-0.8-0.4-1.4-0.8-1.6-1.1c-0.3-0.4-0.4-0.7-0.4-1c0-0.4,0.2-0.7,0.5-1c0.3-0.3,0.8-0.4,1.5-0.4c1.1-0.1,1.6,0.3,1.6,0.9h1.1
	c-0.4-1.5-1.3-2.1-2.6-2.1c-1.1-0.1-1.9,0.2-2.4,0.7s-0.8,1.1-0.8,1.9c0,0.6,0.1,1.2,0.4,1.6s1,0.9,1.9,1.4c0.9,0.3,1.5,0.6,1.7,0.9
	c0.3,0.3,0.4,0.6,0.4,1c0,0.5-0.1,0.9-0.5,1.2s-1,0.4-1.7,0.4c-0.9,0-1.5-0.4-1.6-1.1h-1.3c0.3,1.1,1.1,1.7,1.4,1.9
	c0.3,0.2,0.7,0.3,0.9,0.3l-2.7,0l0,1.3l14.8,0l3.7,3.4c0.1,0.1,0.5,0.2,0.7,0.1c0.3-0.2,0.3-0.3,0.4-0.5l1.1-2.9l24.2,0v-1.3
	L83.1,27.6z M58.1,12.3c-0.7-0.4-1.1-0.9-1.5-1.5c-0.3-0.7-0.5-1.3-0.5-2c0-1,0.2-1.9,0.8-2.6c0.7-0.8,1.7-1.3,3.2-1.4
	c1,0,2,0.4,2.8,1.2c0.8,0.8,1.2,1.7,1.2,2.8c0,0.7-0.1,1.4-0.5,2c-0.4,0.7-0.9,1.2-1.5,1.5c-0.6,0.3-1.3,0.5-2,0.5
	C59.4,12.8,58.7,12.6,58.1,12.3z"/>
<path class="st0" d="M93.2,20.9c-0.5-0.8-1-1.4-1.5-1.7c-0.5-0.3-1-0.4-1.6-0.5s-1.2,0-1.8,0.2c-1,0.4-1.6,1-2.1,1.8
	c-0.3,0.6-0.4,1.6-0.2,2.8L93.2,20.9z"/>
</svg>
