<?xml version="1.0" encoding="utf-8"?>
<svg version="1.1" id="Livello_1" xmlns="http://www.w3.org/2000/svg" xmlns:xlink="http://www.w3.org/1999/xlink" x="0px" y="0px"
	 viewBox="0 0 100 34" style="enable-background:new 0 0 100 34;" xml:space="preserve">
<style type="text/css">
	.st0{fill:#FFFFFF;}
	.st1{fill:#0397BB;}
	.st2{fill:#C5037E;}
</style>
<rect y="0" class="st0" width="100" height="34"/>
<path class="st0" d="M93.2,20.9c-0.5-0.8-1-1.4-1.5-1.7c-0.5-0.3-1-0.4-1.6-0.5s-1.2,0-1.8,0.2c-1,0.4-1.6,1-2.1,1.8
	c-0.3,0.6-0.4,1.6-0.2,2.8L93.2,20.9z"/>
<path class="st1" d="M-0.4,27.8h7.9c-0.9,0-1.9-0.5-3.1-1.6c-1.2-1-1.8-2.3-1.8-3.9c0-1.1,0.3-2.1,0.8-3c0.5-0.9,1.3-1.7,2.2-2.2
	c1-0.5,2-0.8,3.2-0.8c0.7,0,1.5,0.1,2.1,0.3c0.7,0.2,1.2,0.5,1.6,0.9c0.4,0.4,0.8,1.1,1.2,2.1l-1.2,0c-0.8-1.3-2.1-2-3.8-2
	c-1.4,0-2.5,0.4-3.4,1.3c-0.9,0.9-1.4,1.9-1.4,3.2c0,0.8,0.2,1.6,0.6,2.3c0.4,0.7,1,1.3,1.7,1.6c0.7,0.3,1.5,0.5,2.4,0.5
	c1.6,0,2.9-0.6,3.8-1.8H14c-0.5,1-1.2,1.8-2.1,2.3c-0.4,0.2-1.1,0.4-1.9,0.7h3.8v1.3H-0.4V27.8z"/>
<path class="st1" d="M26.4,29.1h-6l-1,3.4c-0.1,0.1-0.1,0.2-0.3,0.3c-0.1,0.1-0.2,0.1-0.4,0.1c-0.1,0-0.2,0-0.3,0
	c-0.1,0-0.2,0-0.2-0.1l-4-3.7l-1,0v-1.3h1.4l3.8,3.4l2.6-7.3l-7.1-7.3h1.5l6.2,5.8l2.5-5.8h1.5l-4.8,11.2h5.5V29.1z"/>
<path class="st1" d="M24,27.8h6.2c-0.9,0-1.9-0.5-3.1-1.6c-1.2-1-1.8-2.3-1.8-3.9c0-1.1,0.3-2.1,0.8-3c0.5-0.9,1.3-1.7,2.2-2.2
	c1-0.5,2-0.8,3.2-0.8c0.7,0,1.5,0.1,2.1,0.3c0.7,0.2,1.2,0.5,1.6,0.9c0.4,0.4,0.8,1.1,1.2,2.1l-1.2,0c-0.8-1.3-2.1-2-3.8-2
	c-1.4,0-2.5,0.4-3.4,1.3c-0.9,0.9-1.4,1.9-1.4,3.2c0,0.8,0.2,1.6,0.6,2.3c0.4,0.7,1,1.3,1.7,1.6c0.7,0.3,1.5,0.5,2.4,0.5
	c1.6,0,2.9-0.6,3.8-1.8h1.2c-0.5,1-1.2,1.8-2.1,2.3c-0.4,0.2-1.1,0.4-1.9,0.7h5.5v1.3H24V27.8z"/>
<path class="st1" d="M36.9,27.8h1.6V12.7H40v15.1h1.6v1.3h-4.7V27.8z"/>
<path class="st1" d="M40.4,27.8h5.1c-0.8-0.3-1.5-0.8-2.1-1.5c-1.1-1.2-1.6-2.5-1.6-4c0-1.5,0.5-2.8,1.5-3.9
	c1.1-1.3,2.6-1.9,4.3-1.9c1.7,0,3.1,0.6,4.3,1.9c1,1.1,1.5,2.4,1.5,3.9c0,1.5-0.5,2.8-1.6,4c-0.6,0.7-1.3,1.1-2.1,1.5h5.1v1.3H40.4
	V27.8z M47.6,18c-1.6,0.1-2.7,0.6-3.4,1.6c-0.6,0.8-0.9,1.7-0.9,2.9c0,0.7,0.2,1.5,0.6,2.2c0.4,0.7,0.9,1.2,1.6,1.6
	c0.7,0.4,1.4,0.6,2.2,0.6c0.8,0,1.5-0.2,2.2-0.6c0.7-0.4,1.2-0.9,1.6-1.6c0.4-0.7,0.6-1.4,0.6-2.2c0-1.2-0.4-2.2-1.3-3.1
	C49.8,18.4,48.8,18,47.6,18z"/>
<path class="st1" d="M53.6,27.9h2.8c-0.2-0.1-0.4-0.1-0.7-0.3c-0.7-0.2-1.3-0.9-1.6-2.1h1.5c0.2,0.8,0.7,1.2,1.7,1.2
	c0.8,0,1.4-0.1,1.8-0.5c0.4-0.4,0.6-0.8,0.6-1.3c0-0.4-0.1-0.8-0.4-1.1c-0.3-0.3-0.9-0.6-1.8-1c-1-0.5-1.7-1-2.1-1.5
	c-0.4-0.5-0.5-1.1-0.5-1.7c0-0.8,0.3-1.6,0.9-2.1c0.6-0.6,1.5-0.8,2.6-0.8c1.4-0.1,2.4,0.7,2.8,2.3L60,19c0-0.7-0.6-1.1-1.7-1
	c-0.7,0-1.3,0.1-1.6,0.5s-0.5,0.7-0.5,1.1c0,0.4,0.1,0.7,0.4,1c0.3,0.3,0.8,0.7,1.7,1.2c1.1,0.6,1.8,1,2.2,1.4
	c0.4,0.5,0.6,1.1,0.6,1.8c0,0.9-0.3,1.7-1,2.3c-0.3,0.3-0.7,0.5-1.2,0.7h3.3v1.3h-8.6V27.9z"/>
<path class="st1" d="M61.7,27.9h3.1v-9.9l-2.9,0v-1.2l2.9,0v-4h1.4v4l2.8,0v1.2l-2.8,0v9.9h3.1v1.3h-7.7V27.9z"/>
<path class="st1" d="M81.9,29.1h-6l-1,3.4c-0.1,0.1-0.1,0.2-0.3,0.3c-0.1,0.1-0.2,0.1-0.4,0.1c-0.1,0-0.2,0-0.3,0
	c-0.1,0-0.2,0-0.2-0.1l-4-3.7l-1,0v-1.3H70l3.8,3.4l2.6-7.3l-7.1-7.3H71l6.2,5.8l2.5-5.8h1.5l-4.8,11.2h5.5V29.1z"/>
<path class="st1" d="M81.2,27.9h1.6V12.7h1.4v15.1h1.6v1.3h-4.7V27.9z"/>
<polygon class="st1" points="94.3,27.9 100,27.9 100,29.1 84.7,29.1 84.7,27.9 89.2,27.9 "/>
<path class="st2" d="M97.4,20.2c-0.5-1.4-1.5-2.5-2.8-3.2c0,0-1.4-0.8-3.1-0.6c-3.3,0.4-4.5,2.6-4.8,3.2c-0.3,0.6-0.5,1.6-0.7,2.9
	l1.4-0.5c0.2-0.8,0.3-1.5,0.6-1.9s0.6-0.9,1-1.2c0.4-0.4,0.9-0.7,1.4-0.9c1.1-0.4,2.2-0.4,3.2,0.1c1,0.5,1.8,1.2,2.1,2.1l-9.4,3.6
	c0.7,1.7,1.6,2.9,2.7,3.6c1.6,1,3.3,1.1,5,0.4c1.7-0.7,2.9-1.8,3.4-3.6C97.8,22.6,97.8,21.3,97.4,20.2z M95.9,24.5
	c-0.5,0.9-1.2,1.6-2.3,2c-0.6,0.2-1.3,0.3-1.9,0.3c-0.7,0-1.3-0.2-1.8-0.5c-0.5-0.3-1-0.9-1.6-1.9l7.8-2.9
	C96.3,22.8,96.2,23.8,95.9,24.5z"/>
</svg>
